HIERARCHY
ROOT mixamorig:Hips
{
	OFFSET 0.000000 201.639420 0.000000
	CHANNELS 6 Xposition Yposition Zposition Xrotation Yrotation Zrotation
	JOINT mixamorig:Spine
	{
		OFFSET 0.006200 19.524994 -2.481800
		CHANNELS 3 Xrotation Yrotation Zrotation
		JOINT mixamorig:Spine1
		{
			OFFSET -0.000900 22.835007 -2.825400
			CHANNELS 3 Xrotation Yrotation Zrotation
			JOINT mixamorig:Spine2
			{
				OFFSET -0.020600 26.552490 -3.193300
				CHANNELS 3 Xrotation Yrotation Zrotation
				JOINT mixamorig:Neck
				{
					OFFSET -0.060000 30.701813 1.352200
					CHANNELS 3 Xrotation Yrotation Zrotation
					JOINT mixamorig:Head
					{
						OFFSET -0.087200 22.547607 3.670900
						CHANNELS 3 Xrotation Yrotation Zrotation
						JOINT mixamorig:HeadTop_End
						{
							OFFSET -0.830600 40.355194 7.893500
							CHANNELS 3 Xrotation Yrotation Zrotation
							End Site
							{
								OFFSET 0.000000 30.592346 0.000000
							}
						}
						JOINT mixamorig:RightEye
						{
							OFFSET -6.302100 18.118591 16.197100
							CHANNELS 3 Xrotation Yrotation Zrotation
							End Site
							{
								OFFSET 0.000000 30.592346 0.000000
							}
						}
						JOINT mixamorig:LeftEye
						{
							OFFSET 6.741500 18.382690 16.401899
							CHANNELS 3 Xrotation Yrotation Zrotation
							End Site
							{
								OFFSET 0.000000 30.592346 0.000000
							}
						}
					}
				}
				JOINT mixamorig:LeftShoulder
				{
					OFFSET 11.924900 18.230499 1.425400
					CHANNELS 3 Xrotation Yrotation Zrotation
					JOINT mixamorig:LeftArm
					{
						OFFSET 25.435989 -0.697632 -5.229300
						CHANNELS 3 Xrotation Yrotation Zrotation
						JOINT mixamorig:LeftForeArm
						{
							OFFSET 54.684776 0.000000 0.000000
							CHANNELS 3 Xrotation Yrotation Zrotation
							JOINT mixamorig:LeftHand
							{
								OFFSET 55.098175 0.000000 0.000000
								CHANNELS 3 Xrotation Yrotation Zrotation
								JOINT mixamorig:LeftHandMiddle1
								{
									OFFSET 23.369751 0.000000 0.000000
									CHANNELS 3 Xrotation Yrotation Zrotation
									JOINT mixamorig:LeftHandMiddle2
									{
										OFFSET 6.378677 0.000000 0.000000
										CHANNELS 3 Xrotation Yrotation Zrotation
										JOINT mixamorig:LeftHandMiddle3
										{
											OFFSET 6.148331 0.000000 0.000000
											CHANNELS 3 Xrotation Yrotation Zrotation
											JOINT mixamorig:LeftHandMiddle4
											{
												OFFSET 6.582504 0.000000 0.000000
												CHANNELS 3 Xrotation Yrotation Zrotation
												End Site
												{
													OFFSET -1.168900 6.395691 1.028606
												}
											}
										}
									}
								}
								JOINT mixamorig:LeftHandThumb1
								{
									OFFSET 7.235672 -3.848206 5.434273
									CHANNELS 3 Xrotation Yrotation Zrotation
									JOINT mixamorig:LeftHandThumb2
									{
										OFFSET 6.568451 -3.792297 3.792300
										CHANNELS 3 Xrotation Yrotation Zrotation
										JOINT mixamorig:LeftHandThumb3
										{
											OFFSET 6.063080 -3.500519 3.500518
											CHANNELS 3 Xrotation Yrotation Zrotation
											JOINT mixamorig:LeftHandThumb4
											{
												OFFSET 4.793182 -2.767334 2.767349
												CHANNELS 3 Xrotation Yrotation Zrotation
												End Site
												{
													OFFSET 0.101639 6.054260 1.275483
												}
											}
										}
									}
								}
								JOINT mixamorig:LeftHandIndex1
								{
									OFFSET 23.101074 -0.309540 4.992809
									CHANNELS 3 Xrotation Yrotation Zrotation
									JOINT mixamorig:LeftHandIndex2
									{
										OFFSET 6.226883 0.000000 0.000000
										CHANNELS 3 Xrotation Yrotation Zrotation
										JOINT mixamorig:LeftHandIndex3
										{
											OFFSET 6.094330 0.000000 0.000000
											CHANNELS 3 Xrotation Yrotation Zrotation
											JOINT mixamorig:LeftHandIndex4
											{
												OFFSET 5.482605 0.000000 0.000000
												CHANNELS 3 Xrotation Yrotation Zrotation
												End Site
												{
													OFFSET -1.427902 5.233032 0.797164
												}
											}
										}
									}
								}
								JOINT mixamorig:LeftHandRing1
								{
									OFFSET 22.299240 0.021149 -3.964172
									CHANNELS 3 Xrotation Yrotation Zrotation
									JOINT mixamorig:LeftHandRing2
									{
										OFFSET 6.321869 0.000000 0.000000
										CHANNELS 3 Xrotation Yrotation Zrotation
										JOINT mixamorig:LeftHandRing3
										{
											OFFSET 5.899796 0.000000 0.000000
											CHANNELS 3 Xrotation Yrotation Zrotation
											JOINT mixamorig:LeftHandRing4
											{
												OFFSET 6.517899 0.000000 0.000000
												CHANNELS 3 Xrotation Yrotation Zrotation
												End Site
												{
													OFFSET -1.637299 6.232208 0.980890
												}
											}
										}
									}
								}
								JOINT mixamorig:LeftHandPinky1
								{
									OFFSET 20.463791 -0.302338 -8.562233
									CHANNELS 3 Xrotation Yrotation Zrotation
									JOINT mixamorig:LeftHandPinky2
									{
										OFFSET 6.908646 0.000000 0.000000
										CHANNELS 3 Xrotation Yrotation Zrotation
										JOINT mixamorig:LeftHandPinky3
										{
											OFFSET 4.622849 0.000000 0.000000
											CHANNELS 3 Xrotation Yrotation Zrotation
											JOINT mixamorig:LeftHandPinky4
											{
												OFFSET 5.216080 0.000000 0.000000
												CHANNELS 3 Xrotation Yrotation Zrotation
												End Site
												{
													OFFSET -0.606308 5.116241 0.814926
												}
											}
										}
									}
								}
							}
						}
					}
				}
				JOINT mixamorig:RightShoulder
				{
					OFFSET -12.001300 18.284088 1.348900
					CHANNELS 3 Xrotation Yrotation Zrotation
					JOINT mixamorig:RightArm
					{
						OFFSET -25.308500 -0.751312 -5.164599
						CHANNELS 3 Xrotation Yrotation Zrotation
						JOINT mixamorig:RightForeArm
						{
							OFFSET -54.684429 0.000000 0.000000
							CHANNELS 3 Xrotation Yrotation Zrotation
							JOINT mixamorig:RightHand
							{
								OFFSET -55.150291 0.000000 0.000000
								CHANNELS 3 Xrotation Yrotation Zrotation
								JOINT mixamorig:RightHandMiddle1
								{
									OFFSET -23.317566 0.000000 0.000000
									CHANNELS 3 Xrotation Yrotation Zrotation
									JOINT mixamorig:RightHandMiddle2
									{
										OFFSET -6.378403 0.000000 0.000000
										CHANNELS 3 Xrotation Yrotation Zrotation
										JOINT mixamorig:RightHandMiddle3
										{
											OFFSET -6.148193 0.000000 0.000000
											CHANNELS 3 Xrotation Yrotation Zrotation
											JOINT mixamorig:RightHandMiddle4
											{
												OFFSET -6.583389 0.000000 0.000000
												CHANNELS 3 Xrotation Yrotation Zrotation
												End Site
												{
													OFFSET 1.171692 6.395905 1.029786
												}
											}
										}
									}
								}
								JOINT mixamorig:RightHandThumb1
								{
									OFFSET -7.190521 -3.860474 5.435846
									CHANNELS 3 Xrotation Yrotation Zrotation
									JOINT mixamorig:RightHandThumb2
									{
										OFFSET -6.567429 -3.791718 3.791708
										CHANNELS 3 Xrotation Yrotation Zrotation
										JOINT mixamorig:RightHandThumb3
										{
											OFFSET -6.062469 -3.500153 3.500166
											CHANNELS 3 Xrotation Yrotation Zrotation
											JOINT mixamorig:RightHandThumb4
											{
												OFFSET -4.792618 -2.767029 2.767022
												CHANNELS 3 Xrotation Yrotation Zrotation
												End Site
												{
													OFFSET -0.100327 6.053253 1.276754
												}
											}
										}
									}
								}
								JOINT mixamorig:RightHandIndex1
								{
									OFFSET -23.048981 -0.310791 4.992554
									CHANNELS 3 Xrotation Yrotation Zrotation
									JOINT mixamorig:RightHandIndex2
									{
										OFFSET -6.227539 0.000000 0.000000
										CHANNELS 3 Xrotation Yrotation Zrotation
										JOINT mixamorig:RightHandIndex3
										{
											OFFSET -6.095047 0.000000 0.000000
											CHANNELS 3 Xrotation Yrotation Zrotation
											JOINT mixamorig:RightHandIndex4
											{
												OFFSET -5.484772 0.000000 0.000000
												CHANNELS 3 Xrotation Yrotation Zrotation
												End Site
												{
													OFFSET 1.420593 5.237305 0.797056
												}
											}
										}
									}
								}
								JOINT mixamorig:RightHandRing1
								{
									OFFSET -22.246323 0.020569 -3.963762
									CHANNELS 3 Xrotation Yrotation Zrotation
									JOINT mixamorig:RightHandRing2
									{
										OFFSET -6.322128 0.000000 0.000000
										CHANNELS 3 Xrotation Yrotation Zrotation
										JOINT mixamorig:RightHandRing3
										{
											OFFSET -5.900024 0.000000 0.000000
											CHANNELS 3 Xrotation Yrotation Zrotation
											JOINT mixamorig:RightHandRing4
											{
												OFFSET -6.518356 0.000000 0.000000
												CHANNELS 3 Xrotation Yrotation Zrotation
												End Site
												{
													OFFSET 1.636398 6.232697 0.982186
												}
											}
										}
									}
								}
								JOINT mixamorig:RightHandPinky1
								{
									OFFSET -20.411011 -0.303314 -8.561701
									CHANNELS 3 Xrotation Yrotation Zrotation
									JOINT mixamorig:RightHandPinky2
									{
										OFFSET -6.907349 0.000000 0.000000
										CHANNELS 3 Xrotation Yrotation Zrotation
										JOINT mixamorig:RightHandPinky3
										{
											OFFSET -4.623840 0.000000 0.000000
											CHANNELS 3 Xrotation Yrotation Zrotation
											JOINT mixamorig:RightHandPinky4
											{
												OFFSET -5.218353 0.000000 0.000000
												CHANNELS 3 Xrotation Yrotation Zrotation
												End Site
												{
													OFFSET 0.602097 5.118835 0.816273
												}
											}
										}
									}
								}
							}
						}
					}
				}
			}
		}
	}
	JOINT mixamorig:LeftUpLeg
	{
		OFFSET 18.168400 -13.561905 -0.039000
		CHANNELS 3 Xrotation Yrotation Zrotation
		JOINT mixamorig:LeftLeg
		{
			OFFSET 0.577358 -80.825211 -3.695000
			CHANNELS 3 Xrotation Yrotation Zrotation
			JOINT mixamorig:LeftFoot
			{
				OFFSET -0.577356 -83.370262 -6.520700
				CHANNELS 3 Xrotation Yrotation Zrotation
				JOINT mixamorig:LeftToeBase
				{
					OFFSET 0.750401 -20.798306 25.135401
					CHANNELS 3 Xrotation Yrotation Zrotation
					JOINT mixamorig:LeftToe_End
					{
						OFFSET -0.000500 0.001200 19.917799
						CHANNELS 3 Xrotation Yrotation Zrotation
						End Site
						{
							OFFSET 0.000000 19.917805 0.000000
						}
					}
				}
			}
		}
	}
	JOINT mixamorig:RightUpLeg
	{
		OFFSET -18.162500 -13.585098 -0.041000
		CHANNELS 3 Xrotation Yrotation Zrotation
		JOINT mixamorig:RightLeg
		{
			OFFSET -0.595024 -80.945297 -3.631900
			CHANNELS 3 Xrotation Yrotation Zrotation
			JOINT mixamorig:RightFoot
			{
				OFFSET 0.595024 -83.218193 -6.561200
				CHANNELS 3 Xrotation Yrotation Zrotation
				JOINT mixamorig:RightToeBase
				{
					OFFSET -0.753601 -20.807106 25.115000
					CHANNELS 3 Xrotation Yrotation Zrotation
					JOINT mixamorig:RightToe_End
					{
						OFFSET 0.000299 0.001700 19.918200
						CHANNELS 3 Xrotation Yrotation Zrotation
						End Site
						{
							OFFSET 0.000000 19.918203 0.000000
						}
					}
				}
			}
		}
	}
}
MOTION
Frames: 4
Frame Time: 0.033333
56.389008 312.174438 565.417358 19.667962 -11.336184 -4.076692 5.482609 -5.220779 5.195698 10.500683 -8.865565 5.019065 10.160507 -8.873341 5.010429 3.048923 21.110375 -20.342224 -14.541819 -0.540197 9.849018 -0.000003 0.000000 -0.000000 -0.000003 0.000000 -0.000000 -0.000003 0.000000 -0.000000 67.374359 -7.180485 30.512227 -72.521733 -10.888332 1.323557 -0.000013 -45.319432 -0.000015 2.345133 -30.217699 2.652961 5.060963 8.136360 -81.238010 8.346044 5.294115 -115.278799 4.991054 5.787727 -81.533443 -0.000001 0.000003 -0.000000 13.988598 -1.446759 -7.305872 19.246350 27.079040 -12.775674 -33.109257 75.279265 53.293934 -0.000002 0.000001 0.000000 8.352223 5.137036 -84.558193 7.354501 5.655247 -104.914007 6.009829 5.848911 -91.557641 0.000000 -0.000000 0.000000 5.975263 8.200107 -89.349181 7.454895 5.627706 -105.935107 5.044472 5.795372 -82.062722 -0.000003 0.000002 0.000001 5.503317 10.493171 -87.970466 5.972968 5.849797 -91.195928 5.757200 5.850322 -89.079020 -0.000001 0.000001 -0.000002 11.393748 2.898192 7.093256 -30.552433 -14.876009 50.477475 0.000087 84.022672 -0.000127 19.044435 8.710813 6.186156 0.104879 -3.405661 24.148482 3.386296 -4.480780 74.147297 1.806567 -3.684345 52.228616 0.000005 -0.000000 -0.000000 -8.735653 2.680493 3.336477 9.050697 -35.096391 -3.474233 2.830643 -34.687358 -10.409621 -0.000002 -0.000002 -0.000001 5.593883 3.094099 13.582720 2.454835 -4.104533 61.751658 1.519608 -3.443349 47.614557 0.000005 -0.000001 0.000000 0.543118 -4.378228 28.822586 3.105906 -4.391765 70.523616 2.471546 -4.113434 61.984820 -0.000001 0.000001 0.000000 -1.398163 -8.954072 30.623833 2.406351 -4.078174 61.071877 2.129989 -3.913106 57.107461 -0.000002 0.000000 0.000001 -14.626201 14.645590 0.662264 50.542911 2.382962 -8.583033 30.904881 -4.284930 -10.622769 -11.718072 0.000002 0.000006 0.000000 0.000000 0.000002 -71.228696 5.560028 -3.729549 62.668154 0.537362 2.978084 -7.941828 10.337786 -0.200394 9.458107 0.000001 0.000001 -0.000000 -0.000000 -0.000001 
57.507759 297.164307 572.748108 23.174388 -22.909856 -7.167926 6.097226 -5.530054 4.103629 12.026130 -10.676105 3.851746 11.692886 -10.649865 3.859991 -1.193002 18.861456 -15.294505 -18.710185 14.235692 6.500797 -0.000001 0.000000 0.000001 -0.000001 0.000000 0.000001 -0.000001 0.000000 0.000001 64.064080 -3.490153 29.004678 -69.513451 -17.696680 -7.852786 -0.000014 -31.978983 -0.000012 -13.134256 -22.317117 -6.557346 4.860200 8.103403 -79.076057 8.171962 5.372509 -113.406255 4.803128 5.756768 -79.665045 -0.000000 0.000002 -0.000001 13.567735 -1.701655 -7.020424 18.943241 27.130317 -12.209448 -31.294281 74.023323 51.227652 -0.000001 -0.000000 0.000001 8.071658 5.140410 -82.288261 7.199694 5.694026 -103.348508 5.794883 5.850764 -89.448916 -0.000000 0.000001 -0.000002 5.820002 8.201876 -87.002813 7.291237 5.671657 -104.272823 4.865466 5.767720 -80.286101 -0.000002 0.000001 0.000000 5.274677 10.467875 -85.612111 5.734661 5.849908 -88.858166 5.631851 5.846998 -87.849033 0.000000 0.000001 -0.000001 17.340474 4.780637 -0.508400 -38.467981 -7.140400 62.138049 -0.000112 77.817691 0.000134 6.275731 9.351146 6.236808 0.149684 -3.502527 24.051048 3.330654 -4.464660 73.433802 1.783822 -3.666654 51.873931 -0.000001 0.000002 0.000000 -8.697131 2.841104 3.136819 9.272592 -35.156199 -2.880264 2.716417 -34.179902 -10.632420 -0.000005 -0.000003 -0.000001 5.734248 3.001625 13.343371 2.414277 -4.082521 61.183359 1.465362 -3.393156 46.705069 0.000003 0.000001 0.000001 0.586990 -4.457453 28.714402 3.055987 -4.373831 69.870397 2.459314 -4.106917 61.814237 -0.000000 0.000001 0.000000 -1.401507 -9.068523 30.534094 2.357294 -4.050748 60.379815 2.123571 -3.908970 57.013440 -0.000002 0.000000 0.000000 -26.042779 15.030502 7.451647 47.322604 7.708380 -7.254693 25.168745 -5.485338 -11.260030 -12.365342 -0.000004 -0.000003 0.000002 -0.000000 0.000000 -85.156961 1.914797 13.186674 73.925897 0.930851 8.626414 -9.587303 3.081558 13.585102 4.408067 0.000002 0.000004 -0.000000 0.000000 0.000000 
58.266254 279.136536 580.269714 21.975140 -29.477717 -10.025683 7.039427 -5.748931 2.873129 13.962102 -12.136937 2.354512 13.859151 -12.105718 2.361651 -5.245688 16.117670 -10.316196 -21.631592 24.509746 5.049392 -0.000003 -0.000001 -0.000001 -0.000003 -0.000001 -0.000001 -0.000003 -0.000001 -0.000001 57.328619 0.600629 27.321428 -65.004474 -25.900972 -15.708950 0.000002 -18.532320 -0.000009 -26.605924 -12.640890 -5.272675 4.525170 8.032570 -75.363044 7.825564 5.508899 -109.753900 4.442747 5.679602 -76.049334 -0.000004 -0.000000 -0.000001 12.983229 -2.346553 -6.619831 18.265820 27.065902 -10.907086 -27.580695 72.013095 46.869704 0.000000 -0.000000 0.000001 7.659903 4.969939 -78.353970 6.891284 5.758159 -100.258257 5.364735 5.830871 -85.223911 -0.000001 -0.000003 0.000002 5.583700 8.201640 -83.014228 6.950010 5.747299 -100.843747 4.501537 5.693823 -76.642755 -0.000004 0.000001 -0.000001 4.907438 10.473361 -81.563018 5.346475 5.829324 -85.044249 5.371229 5.831440 -85.287814 -0.000003 0.000000 0.000000 22.879469 5.904526 -6.790776 -45.799383 -4.598280 71.961049 0.000002 73.229416 -0.000015 -2.882283 7.109833 5.472957 0.197809 -3.607661 23.950723 3.273377 -4.447274 72.696593 1.758900 -3.646991 51.483145 -0.000003 0.000001 0.000001 -8.658051 3.001123 2.936762 9.476612 -35.195630 -2.281826 2.590485 -33.641554 -10.854525 -0.000001 0.000001 -0.000003 5.875138 2.908728 13.100565 2.372574 -4.059353 60.595983 1.410661 -3.340850 45.773606 -0.000003 0.000000 0.000000 0.634839 -4.544638 28.611717 3.004293 -4.354595 69.190957 2.443932 -4.098663 61.599209 -0.000004 0.000000 0.000001 -1.399387 -9.189886 30.452364 2.306942 -4.021764 59.664462 2.115112 -3.903464 56.889230 0.000001 -0.000000 0.000000 -33.775285 18.021242 17.605458 41.921724 6.374018 -5.143332 19.861475 -7.497459 -7.636337 -11.147962 -0.000002 -0.000003 0.000000 -0.000001 -0.000000 -89.597807 -3.779363 25.751140 88.067346 3.262803 9.966387 -6.647473 -0.490380 5.418836 -1.175401 0.000000 0.000000 0.000001 -0.000000 -0.000001 
58.329021 258.504517 587.783630 19.075415 -31.198938 -11.291265 7.780324 -6.257087 1.270608 15.390568 -13.186604 0.786891 15.516443 -13.172632 0.786344 -8.595290 13.467128 -6.072960 -24.228346 31.329781 4.832590 -0.000001 0.000000 0.000000 -0.000001 0.000000 0.000000 -0.000001 0.000000 0.000000 48.775730 4.394647 27.660010 -59.547167 -32.752711 -20.142928 -0.000001 -9.632635 0.000000 -30.878274 -9.780933 4.723739 3.977973 7.872493 -69.102294 7.190168 5.696271 -103.252619 3.818274 5.487760 -69.637843 -0.000001 -0.000001 0.000001 12.130671 -3.601784 -6.054558 17.007178 26.801743 -8.468718 -22.391527 68.628320 40.461351 0.000000 0.000004 -0.000003 7.032014 4.517488 -71.698470 6.333125 5.831221 -94.734321 4.600054 5.716211 -77.633542 -0.000004 -0.000000 0.000000 5.215735 8.198542 -76.319523 6.321064 5.832229 -94.615182 3.857113 5.501900 -70.043337 0.000001 -0.000001 -0.000002 4.312875 10.469590 -74.736893 4.712279 5.739546 -78.758037 4.899011 5.773362 -80.619489 -0.000002 0.000001 -0.000001 25.977405 6.508831 -8.574237 -49.352570 -6.235662 77.617764 -0.000015 70.348339 0.000029 -3.125394 3.841705 5.655924 0.242796 -3.707153 23.871554 3.215323 -4.428824 71.946446 1.737504 -3.629905 51.146164 -0.000002 0.000001 -0.000000 -8.609818 3.165750 2.755709 9.703742 -35.273228 -1.687734 2.479843 -33.146198 -11.075507 -0.000003 0.000002 -0.000004 6.025542 2.816016 12.893036 2.328896 -4.034495 59.977052 1.359805 -3.290682 44.894526 0.000003 0.000001 0.000005 0.678984 -4.625682 28.531049 2.951946 -4.334400 68.500063 2.433500 -4.093023 61.453193 0.000000 0.000001 0.000001 -1.409081 -9.308022 30.398518 2.258454 -3.993083 58.970747 2.108864 -3.899402 56.797466 0.000001 0.000001 -0.000000 -39.417350 24.978058 26.426270 32.426449 -1.293477 -2.788793 16.475176 -10.518101 -1.804236 -8.849718 -0.000004 0.000001 0.000001 0.000000 0.000000 -88.626813 -4.944861 30.939592 104.349076 1.111794 8.116427 -5.430382 -6.497765 17.984028 -5.208227 0.000003 -0.000004 0.000003 0.000001 0.000000 
